<?xml version="1.0" encoding="UTF-8"?>
<svg id="Layer_1" xmlns="http://www.w3.org/2000/svg" xmlns:xlink="http://www.w3.org/1999/xlink" version="1.1" viewBox="520 215 500 450">
  <!-- Generator: Adobe Illustrator 30.3.0, SVG Export Plug-In . SVG Version: 2.1.3 Build 182)  -->
  <defs>
    <style>
      .st0 {
        fill: #517090;
      }

      .st1 {
        fill: #08356b;
      }

      .st2 {
        fill: #306730;
      }

      .st3 {
        fill: #052048;
      }

      .st4 {
        fill: #294a73;
      }

      .st5 {
        fill: #4c7195;
      }

      .st6 {
        fill: #135829;
      }

      .st7 {
        fill: #75a237;
      }

      .st8 {
        fill: #09356a;
      }

      .st9 {
        fill: #73a42c;
      }

      .st10 {
        fill: url(#linear-gradient);
      }

      .st11 {
        fill: #749e37;
      }

      .st12 {
        fill: #15592c;
      }

      .st13 {
        fill: #083369;
      }

      .st14 {
        fill: #041c40;
      }

      .st15 {
        fill: #052049;
      }

      .st16 {
        fill: #14572a;
      }

      .st17 {
        fill: #5e7e9f;
      }

      .st18 {
        fill: #3b688f;
      }

      .st19 {
        fill: #083468;
      }

      .st20 {
        fill: #083469;
      }

      .st21 {
        fill: #072b5b;
      }

      .st22 {
        fill: #b6c9d8;
      }

      .st23 {
        fill: #4f78a4;
      }

      .st24 {
        fill: #061f47;
      }

      .st25 {
        fill: #041b40;
      }

      .st26 {
        fill: #1a5500;
      }

      .st27 {
        fill: #041a3f;
      }

      .st28 {
        fill: #25622c;
      }

      .st29 {
        fill: #5d7d9c;
      }

      .st30 {
        fill: #08346a;
      }

      .st31 {
        fill: #041b3e;
      }

      .st32 {
        fill: #d0dae1;
      }

      .st33 {
        fill: #041b3f;
      }
    </style>
    <linearGradient id="linear-gradient" x1="226.11" y1="1244.41" x2="203.06" y2="1290.87" gradientTransform="translate(598.86 -851.54) scale(.93)" gradientUnits="userSpaceOnUse">
      <stop offset="0" stop-color="#4e8632"/>
      <stop offset="1" stop-color="#659a2e"/>
    </linearGradient>
  </defs>
  <path class="st15" d="M767.69,320.91c-2.89,3.64-6.81,7.03-7.85,11.09l-1.59,35.23c-.85,18.83-1.22,51.39-6.74,65.15-2.22,5.54-7.19,9.1-13.19,10.86-18.06,5.32-39.33-8.28-52.03-22.22,8.93,14.09,25.74,25.76,41.8,28.94-13.79,3.44-27.11,4.76-41.03,4.67-7.05-6.4-11.95-13.81-16.61-22.32l-11.28,13.58c-11.52-32.33-10.37-61.81,10.51-89.46,9.33,20.5,22.48,38.08,40.7,52.59l-14.34,6.73c8.26,7.88,17.26,14.5,28,17.29,16.24,4.23,21.57-16.1,22.95-31.51,1.88-20.97,2.88-41.42,3.54-62.87l-23.19-3.64c-1.06,1.52-2.83,3.84-4.65,3.33l-17.09-4.73c-2.21-8.09-2.06-16.6-.02-24.75,6-1.97,11.23-3.85,17.13-5.06,1.99-.41,3.32,1.62,4.45,3.01l23.01-3.79c1.29-.26,1.57-4.39.41-5.22-16.17-11.7-22.39-32.72-14.19-50.64,8.82-19.25,32.04-26.86,50.06-15.3,10.6,6.8,16.27,18.28,16.73,30.68.53,14.39-6.06,27.58-18.2,35.39l.13,4.96,24.41,3.81c1.21-2.15,2.96-3.65,5.49-2.88l15.76,4.79c1.68,6,1.43,11.89,1.32,18.31-.03,1.84-.02,5.38-1.84,6.56l-16.6,4.89c-1.9.56-3.71-1.89-4.64-3.23l-23.4,3.39,3.85,63.74c.5,8.34,2.68,15.88,6.52,23.49l-27.03,11.82-.69-89.75-.56-26.9ZM793.87,255.12c-.92-.1-2.28.11-2.63.79-1.33,2.61.87,5.75-1.15,5.83-1.52-3.47-1.05-9-4.05-10.28,2.54,6.01,2.8,10.84.83,16.15-1.48,3.99-2.97,8.03-6.48,10.78l1.45,3.47c4.23-3.07,7.17-7.4,7.57-12.04,1.34.29,2.57.6,4.11,1.54-.62,1.79-.61,3.73-.81,5.33-.09.73-1.79,2.02.01,3.19,3.18-5.68,4-11.91,3.65-18.1-.77-13.45-9.31-26.7-23.75-28.9-11.02-1.68-21.62,2.15-27.7,11.24-9.96,14.91-5.91,38.09,9.68,47.28-6.02-7.4-11.18-14.99-9.71-24.02,3.32,5.69,5.1,11.16,10.49,14.06-3.41-4.53-6.5-7.78-7.49-13.06-1.35-7.18-1.46-15.34,2.67-21.53,6.54-9.8,19.36-11.59,28.94-5.26l6.95,5.6c-.81-4.17-4.09-5.53-6.19-8.61,7.07,3.29,11.78,9.51,13.62,16.52ZM777.32,273.59c6.24-4.89,5.8-15.44.84-20.71-3.75-3.99-8.49-5.69-13.87-4.29-3.86,1-7.82,4.67-9.11,9.45-1.61,5.98-.9,11.73,3.72,16.21,5.44-5.46,12.8-3.05,18.42-.65ZM768.35,298.62l8.17,2.25-.1-17.37c0-1.76-1.09-2.83-2.09-3.67-7.01-5.85-14.12-1.52-14.16.87l-.31,19.79,8.49-1.88ZM767.83,317.14l42.27.2c.33-1.59.3-3.28.11-4.96-14.41-1.32-27.96-4.07-42-7.97-13.87,3.58-27.62,6.44-42.13,7.94-.27,1.77-.31,3.38-.07,5.1l41.81-.31ZM718.87,316.28c.83,2.26-.03,4.28,2.1,6.34l.31-12.7-10.28,3.34c-1.46.47-1.35,3.35-.58,4.72l8.46-1.71ZM825.28,317.58c.9-1.22.79-4.16-.41-4.53l-9.99-3.13.02,15.97c2.21-3.17,1.48-6.31,2.4-9.43l7.98,1.12ZM743.1,326.07c1.19.11,1.63-.35,1.6-1.1-.04-.91-.44-1.13-1.57-1.23l-16.84-1.37c-.5-.04-.46,2.08.18,2.14l16.63,1.55ZM779.77,326.51c9.47.33,18.32-1.57,27.8-1.53h2.36c.5.01.31-2.8-.2-2.75l-24.73,2.39c-1.58.15-3.69.1-5.24,1.89ZM691.13,406.73c-6.57-6.66-12.17-13.16-17.06-20.81-1.92-2.94-3.04-5.79-5.06-9.31-.33,9.36,1.21,18.69,4.5,27.8.61,1.68,1.72,4.95,3.38,5.36l14.25-3.03ZM663.68,396.22c-.1-2.97.92-5.49.58-9.11-.11-1.14,1.89-3.24.16-5.08-3.23,13.34-4.1,27.35-.19,41.34,1.84-1.25,2.4-3.23,1.93-5.11-1.79-7.12-2.21-14.39-2.48-22.04ZM711.51,447.83c-12.04-6.48-20.57-15.21-29.05-24.74,5.64,10.84,14.12,19.57,23.69,26.76,1.34.81,5.2-.34,5.36-2.02Z"/>
  <path class="st10" d="M901.07,349.98c-2.02,29.4-27.79,52.13-52.75,68.68-32.67,21.66-70.9,36.79-109.77,44.9-18.21,3.8-36.14,5.76-54.62,3.91-18.62-1.87-40.1-8.03-49.39-24.04.33-.88-.98-.9-.99.07-7.82-17.04,2.18-38.03,15.46-51.37l-1.39,11.91c-1.09-.29-.73,2.67-1.32,3.48-2.62,3.64-3.17,6.92-3.65,10.95-.58,4.83-1.73,10.57.49,12.27,1.42,11.21,9.79,20.14,20.99,24.07,23.24,8.14,54.36,2.6,78.08-4.2,27.67-7.93,53.67-18.79,78.4-33.16,22.77-13.24,48.07-31.67,58.25-56.21,5.3-12.78,1.52-26.78-10.06-34.23l-6.83-4.39c2.35-1.96,1.17-4.03,2.54-5.74,17.22,4.45,32.98,15.9,36.57,33.09Z"/>
  <path class="st3" d="M748.34,473.78c-.22.95.02,1.88,1,2.41,3.67,1.98,6.51,4.68,9.48,7.22l8.66,7.43.28-10.72-.16-9.12c0-.37-1.07-1.15-1.06-1.82,38.4-11.4,76.21-27.91,106.82-55.19.68.12,1.08.83.43,1.17-1.07,2.4-1.61,4.97.12,7.57l1.73-7.89c.19-.86-.05-1.34-.63-2.05l11.63-11.6c.65,15.65-1.72,30.27-6.78,44.86l-11.78-14.3c-14.23,28.53-40.13,42.66-67.88,55.96-11.95,5.73-22.7,12.41-32.02,22.08-6.37-7.54-13.56-12.81-21.99-17.12l-27.03-13.82c10.54-1.44,19.88-2.73,29.2-5.08ZM772.3,487.79c9.36-6.28,18.39-10.74,27.81-15.83,14.98-8.11,31.68-18.75,42.23-31.49-14.72,11.93-30.57,21.52-48.2,28.55-9.67,3.86-18.81,9.42-21.83,18.77Z"/>
  <path class="st6" d="M633.54,443.5c.01-.97,1.32-.95.99-.07,9.29,16.01,30.77,22.17,49.39,24.04,18.47,1.85,36.4-.11,54.62-3.91,38.88-8.11,77.1-23.24,109.77-44.9,24.96-16.55,50.73-39.28,52.75-68.68,3.46,16.57-5.25,33.94-16.91,47.16-28.7,32.55-70.64,52.8-111.44,65.75-38.84,12.32-101.13,24.3-131.2-6.69-3.73-3.84-5.96-8.3-7.98-12.69Z"/>
  <path class="st31" d="M650.6,558.68c-.12-.07-.67-.07-1.13.14l.6,32.4c.05,2.83,2.41,5.1,3.67,8l-54.16,7.17,1.99-6.73c1.07-3.62-1.21-7.4-2.21-10.97l-23.19,3.35-2.61,10.8c-.59,2.45,1.66,4.97,2.77,7.36l-27.77,5.85c2.96-5.34,5.38-9.13,6.97-14.11l6.33-19.87c6.09,1.4,15.42-3.51,19.15-4.11l14.3-2.29c.67-.11.79-.94.81-1.24.02-.34-.06-.96.13-1.23s.96-.34,1.55-.44l18.81-3.38,2.37,8.92c.13.47.76.98,1.08,1.68.21.46-.64,1.59-.22,1.8.98,1.45.27,2.42,1.12,3.3,2.73,2.81,2.28,9.4,5.58,9.43.8,1.82,2.01,3.88,3.73,5.35,2.32-3.34,3.08-6.81,3.1-10.59l.09-22.81c4.27-.46,9.05-.34,12.85-1.75,1.91-3,.88-8.08,3.18-7.19.64.25.7.46,1.12,1.16Z"/>
  <path class="st1" d="M960.79,574.21c-1.31.28-1.35-.48-1.64-1.22-.39-.98.4-1.58,1.42-2.26l-22.07-4.33-22.67-3.53c-.26-.58-.42-.97-.73-1.11-.58-.27-2.27.28-3.09.33l-.28-13.17c.15-.92-.05-1.5-.94-1.49l-.35-9.96c-.14-4.04-1.35-7.33-3.81-11.41l42.78.16c7.04.03,14.26,2.73,18.91,7.62,5.29,5.57,6.43,13.02,5.82,20.3-1.2,14.39-13.53,17.69-13.87,18.39-.28.57.1,1.25.53,1.68ZM949.59,545.72c-1.65-4.79-6.69-6.61-11.57-6.45l-5.28.18.09,22.55c4.72.88,10.13,1.25,14-1.86,4.19-3.36,4.51-9.33,2.76-14.42Z"/>
  <path class="st14" d="M960.79,574.21l15.79,26.7,11.29,15.05-29.93-6.65c-1.42-.32-3.97-.9-4.68-2.28l-14.43-28.25c-1.16-2.26-3.23-4.31-5.9-3.03l.06,17.95c.02,4.44,2.25,7.83,3.78,12.13l-30.02-4.33c1.82-3.34,3.71-6.03,3.74-9.36l.29-44.73c.89-.01,1.09.57.94,1.49l.28,13.17c.82-.05,2.51-.6,3.09-.33.31.14.47.53.73,1.11l22.67,3.53,22.07,4.33c-1.02.67-1.81,1.28-1.42,2.26.29.74.34,1.51,1.64,1.22Z"/>
  <path class="st27" d="M834.16,556.99l20.86.8,3.78-12.81c.13-.43.37-1.12.72-1.28.29-.14.86-.07,1.19,0-3.27,7.59-3.64,16.12-2.68,24.71,1.07,9.57,3.8,19.38,13.28,18.41,8.61-.88,10.41-15.84,10.12-25.74,1.49-1.56,3.46-1.31,5.56-1.12l10.42.97c2.47.23,4.53,1.07,6.97-.77-1.66-2.55-1.39-5.64-.88-8.02-1.02-.57-1.27-2-.64-2.91-.95-2.91-2.09-6.27-4.33-9.17l-3.27-4.22-2.57-2.81c-.5-.54-2.16-1.01-1.42-2.48,14.94,10.27,17.76,33.99,11.14,51.41-6.8,17.86-28.96,22.3-47.03,15.32-10.35-4-17.42-12.32-19.94-22.39-1.52-6.08-2.21-12.08-1.27-17.9Z"/>
  <path class="st25" d="M804.34,592.81c1.08-2.19,2.34-4.56,2.35-7.28l.06-20.17-19.08.15.04,16.27c.01,5.11,1.59,8.98,4.46,13.51l-30.35-.25c1.37-3.51,3.38-6.57,3.4-10.26l.12-28.6,51.24.51,11.01.29c-.15,7.95-.94,15.44-.03,22.87.63,5.1.07,10.46,3.65,15.06-4.67.77-12.08-1.71-16.47-.82-3.39.69-6.29.39-9.69.38.12-.84-.13-1.38-.72-1.67Z"/>
  <path class="st8" d="M626.53,594.5c-3.3-.03-2.85-6.62-5.58-9.43-.85-.88-.15-1.85-1.12-3.3-.42-.21.43-1.33.22-1.8-.32-.7-.95-1.21-1.08-1.68l-2.37-8.92-18.81,3.38c-.59.11-1.36.17-1.55.44s-.11.88-.13,1.23l-7.7-25.76-7.82,27.22c-.29.99-.12,1.43.41,2.07-3.73.6-13.06,5.51-19.15,4.11l15.27-48.07c.16-2.78-.87-4.93-2.16-7.98h28.9s14.74,46.85,14.74,46.85l4.43,13.61c.93,2.87,2.32,5.56,3.49,8.03Z"/>
  <path class="st30" d="M804.34,592.81c.58.28.84.83.72,1.67,3.4.01,6.3.31,9.69-.38,4.39-.89,11.8,1.59,16.47.82-3.58-4.6-3.02-9.96-3.65-15.06-.92-7.43-.12-14.92.03-22.87l-11.01-.29-51.24-.51-.1-18.47c-.02-4.18-1.23-7.58-3.9-11.74l30.36.14c-1.99,2.93-3.67,5.41-3.71,8.39l-.23,18.01,18.97.12v-15.68c0-3.9-1.16-7.13-3.67-10.86l30.08.04c-3.02,3.7-4.19,7.33-4.18,11.62l.18,48.16c.01,3.66,2.03,6.99,3.76,10.03l-29.69-.81,1.15-2.34Z"/>
  <path class="st20" d="M891.26,530.55c-.75,1.46.92,1.93,1.42,2.48l2.57,2.81,3.27,4.22c2.24,2.89,3.38,6.25,4.33,9.17-.62.9-.37,2.33.64,2.91-.51,2.38-.77,5.47.88,8.02-2.44,1.84-4.5,1-6.97.77l-10.42-.97c-2.1-.2-4.07-.45-5.56,1.12-.3-10.1-2.98-23.77-12.28-23.55-3.73.09-6.97,2.77-8.44,6.18-.32-.07-.89-.13-1.19,0-.35.16-.59.86-.72,1.28l-3.78,12.81-20.86-.8,1.55-9.64c3.6-13.56,15.77-22.13,30.62-22.76,9.08-.39,17.76,1.04,24.93,5.96Z"/>
  <path class="st33" d="M725.23,545.73c-5.34,12.25-4.07,32.69,9.1,36.45,7.75,2.21,15.86.05,21.92-4.99.74-.61,2.21-1.57,2.89-.84-.86,6.43-2.51,11.94-4.74,17.95-19.96,5.07-42.48,3.99-51.94-14.22-3.38-6.51-4.06-13.49-4.03-20.38l18.78-1.63,2.9-1.12c.75-.29.45-2.31,1.02-2.88,1.97-1.99.09-7.42,4.1-8.33Z"/>
  <path class="st1" d="M678.01,561.42c.24.15.42.57.13.93-8.21-.59-16.14.8-24.07,2.21l-3.47-5.87c-.41-.7-.48-.91-1.12-1.16-2.31-.89-1.28,4.19-3.18,7.19-3.79,1.41-8.58,1.29-12.85,1.75l-.22-28.98c-.03-4.09-1.34-7.45-4.2-11.39l26.26-.02,21.09,35.03c.39.65,1.23.66,1.63.33Z"/>
  <path class="st33" d="M695.75,529.27c-1.44,3.77-2.18,7.81-2.18,12.24l.08,39.52.76,15.59-19.49,1.25-20.84-33.32c7.93-1.41,15.86-2.8,24.07-2.21.29-.36.11-.78-.13-.93l.15-8.05-.49-18.83c1.07.22,1.86.05,3.1-.29-.64,6.06.86,11.22-.84,15.98-1.21,3.39-.89,6.74-.7,10.91,4.75.71,12.22-1.81,12.4-3.12.09-.68-.37-1.7.19-2.66l.29-17c.07-4.26.92-8.74,3.64-9.09Z"/>
  <path class="st19" d="M725.23,545.73c-4.02.91-2.13,6.34-4.1,8.33-.57.58-.27,2.59-1.02,2.88l-2.9,1.12-18.78,1.63c.04-9.9,2.98-19.99,11.2-26.87,9.88-8.28,22.68-9.44,35.69-7.37,3.52.56,6.53.66,10.57-.15l1.71,20.81c-5.7-3.25-9.52-7.24-15.52-7.71-7.28-1.7-13.7,1.67-16.84,7.32Z"/>
  <path class="st12" d="M867.31,350.11c-11.86-6.38-24.77-9.47-38.87-10.6,9.81-4.01,7.51-7.77,8.24-18.48,19.53,3.1,40.71,12.6,37.8,33.83l-7.18-4.74Z"/>
  <path class="st9" d="M741.96,347.55c-18.57,1.55-39.69,14.4-54.45,26.11-.92.73-1.7,1.65-2.28,2.43l-5.01-8.14c13.75-11.39,29.27-20.12,45.82-26.22l15.92,5.82Z"/>
  <path class="st13" d="M695.75,529.27c-2.72.35-3.57,4.83-3.64,9.09l-.29,17c-.57.96-.1,1.97-.19,2.66-.18,1.31-7.65,3.83-12.4,3.12-.18-4.17-.51-7.51.7-10.91,1.7-4.76.2-9.92.84-15.98-1.24.34-2.04.5-3.1.29-.08-2.91-1.71-5.16-3.74-8.46l23.75-.06c-.03,1.97-1.63,2.47-1.93,3.25Z"/>
  <path class="st16" d="M741.96,347.55c.54.17,1.78-.24,2.83.64-19.54,8.07-38.82,18.59-54.85,34.35l-4.71-6.45c.58-.78,1.37-1.7,2.28-2.43,14.76-11.71,35.88-24.56,54.45-26.11Z"/>
  <path class="st24" d="M833.17,404.23c-1.85-1.64-.53-3.79,1.08-3.96,14.66-12.39,23.93-27.27,32.98-44.18,2.63,2.35,4.25,4.57,5.75,7.48-7.41,16.76-24.29,29.7-39.81,40.66Z"/>
  <path class="st7" d="M573.48,631.69l-12.96-.26c-.33-.15-.43-.44-.43-.6l8.71-.42,58.3-4.29c.96,2.67.8,5.13.24,7.99l-53.86-2.42Z"/>
  <path class="st11" d="M970.28,631.33l-66.58,2.84c-.7-2.68-.91-5.41.27-7.91l56.85,4.24,8.19.24c.55.02.95-.03,1.27.59Z"/>
  <path class="st2" d="M864.5,316.89c-1.38,1.71-.19,3.78-2.54,5.74-8.24-4.33-16.94-6.3-25.77-8.99,10.04-.8,19.34.93,28.32,3.25Z"/>
  <path class="st28" d="M643.13,430.76c-2.22-1.71-1.08-7.44-.49-12.27.49-4.04,1.03-7.32,3.65-10.95.58-.81.22-3.77,1.32-3.48l-.25,8.76c-2.92,5.64-5.02,11.71-4.23,17.94Z"/>
  <path class="st23" d="M873.35,413.98l1.65-1.19c.58.71.82,1.19.63,2.05l-1.73,7.89c-1.73-2.6-1.19-5.17-.12-7.57.65-.34.25-1.05-.43-1.17Z"/>
  <path class="st32" d="M767.83,317.14l.38-12.73c14.04,3.9,27.59,6.65,42,7.97.19,1.68.21,3.38-.11,4.96l-42.27-.2Z"/>
  <path class="st0" d="M774.32,279.84c1.01.84,2.08,1.91,2.09,3.67l.1,17.37-8.17-2.25c-.53-6.6-.3-12.84-.16-19.75,2.22,1.59,4.88,2.22,5.27,2.02s.64-.69.87-1.06Z"/>
  <path class="st29" d="M711.51,447.83c-.15,1.67-4.02,2.82-5.36,2.02-9.56-7.19-18.05-15.92-23.69-26.76,8.47,9.53,17.01,18.26,29.05,24.74Z"/>
  <path class="st21" d="M793.87,255.12l1.57,5.98c.16.59.4.75.92.69.36,6.19-.46,12.41-3.65,18.1-1.8-1.17-.1-2.46-.01-3.19.19-1.6.18-3.55.81-5.33-1.53-.94-2.77-1.25-4.11-1.54l.69-8.09c2.02-.08-.18-3.22,1.15-5.83.35-.68,1.71-.89,2.63-.79Z"/>
  <path class="st17" d="M663.68,396.22c.27,7.65.69,14.92,2.48,22.04.47,1.88-.09,3.86-1.93,5.11-3.91-13.99-3.04-28,.19-41.34,1.73,1.85-.27,3.94-.16,5.08.34,3.62-.68,6.14-.58,9.11Z"/>
  <path class="st4" d="M779.77,326.51c1.55-1.79,3.66-1.73,5.24-1.89l24.73-2.39c.51-.05.7,2.76.2,2.76h-2.36c-9.48-.05-18.34,1.85-27.8,1.52Z"/>
  <path class="st5" d="M743.1,326.07l-16.63-1.55c-.64-.06-.68-2.18-.18-2.14l16.84,1.37c1.13.09,1.53.31,1.57,1.23.03.75-.41,1.21-1.6,1.1Z"/>
  <path class="st22" d="M772.3,487.79c3.03-9.35,12.16-14.91,21.83-18.77,17.63-7.03,33.47-16.61,48.2-28.55-10.54,12.74-27.24,23.38-42.23,31.49-9.41,5.09-18.45,9.55-27.81,15.83Z"/>
  <g>
    <path class="st26" d="M673.66,636.97c0,.87-.25,1.6-.76,2.19-.51.59-1.37.88-2.59.88-1.36,0-2.33-.32-2.91-.96s-.86-1.43-.86-2.37v-1.96c0-1.47-.21-2.54-.63-3.21-.42-.67-1.19-1.01-2.3-1.01h-3.98v6.6c0,.8.97,1.2,2.91,1.2v1.52h-9.24v-1.52c1.55,0,2.33-.4,2.33-1.2v-13.98c0-.8-.78-1.2-2.33-1.2v-1.54h11.2c.85,0,1.69.06,2.51.17.82.11,1.55.34,2.19.69.64.35,1.15.84,1.53,1.48.38.64.58,1.48.58,2.53,0,.68-.11,1.28-.31,1.79s-.49.96-.83,1.32c-.34.37-.73.66-1.17.89-.44.23-.89.39-1.36.5.45.16.86.36,1.22.62.36.25.67.58.92.97.25.39.44.87.57,1.43.13.56.2,1.22.2,1.99v2.41c0,.38.08.67.24.85.16.18.36.27.61.27.27,0,.48-.09.64-.27s.24-.47.24-.85v-1.26h1.39v1.05ZM659.63,622.6v6.18h4.29c1.05,0,1.85-.24,2.41-.72s.84-1.3.84-2.45c0-2.01-1.08-3.01-3.25-3.01h-4.29Z"/>
    <path class="st26" d="M699.23,626.29l-1.83.11c-.21-2.64-1.33-3.95-3.35-3.95h-5.86v6.34h2.98c1.05,0,1.65-1.06,1.81-3.17h1.65l-.39,8.17h-1.6c-.17-2.16-.72-3.25-1.65-3.25h-2.8v7.28h4.92c2.93,0,4.56-1.87,4.87-5.6l1.89.18-.63,7.46h-17.38v-1.49c1.55,0,2.33-.4,2.33-1.21v-14c0-.8-.78-1.21-2.33-1.21v-1.54h17.38v5.89Z"/>
    <path class="st26" d="M726.98,626.81l-1.91.16c-.35-1.47-1.02-2.64-2-3.53-.99-.89-2.26-1.34-3.83-1.34-1.15,0-2.14.2-2.96.6-.82.4-1.49.96-2,1.68-.52.72-.89,1.57-1.14,2.57-.24,1-.37,2.09-.37,3.27,0,1.31.15,2.45.46,3.42.3.97.73,1.77,1.28,2.41.55.64,1.2,1.11,1.96,1.43.76.31,1.6.47,2.53.47,1.81,0,3.25-.42,4.29-1.27s1.81-2.04,2.28-3.57l1.75.6c-.24.84-.58,1.65-1.01,2.43-.43.79-.98,1.48-1.66,2.09-.68.61-1.51,1.1-2.49,1.48-.98.38-2.14.56-3.48.56-1.41,0-2.73-.2-3.95-.6-1.22-.4-2.29-1.01-3.21-1.84-.92-.82-1.64-1.86-2.16-3.11-.52-1.25-.79-2.72-.79-4.42s.26-3.3.77-4.6c.51-1.3,1.22-2.38,2.12-3.22.9-.85,1.95-1.48,3.15-1.9,1.2-.42,2.5-.63,3.87-.63s2.62.21,3.63.64c1,.42,1.76.91,2.26,1.46l.65-1.65h1.94v6.42Z"/>
    <path class="st26" d="M755.54,621.97c-.61,0-1.1.07-1.45.2-.36.13-.61.31-.75.54l-5.94,8.76v5.69c0,.8.87,1.21,2.62,1.21v1.49h-9.24v-1.49c1.75,0,2.62-.4,2.62-1.21v-5.69l-5.76-8.73c-.19-.3-.46-.5-.81-.62s-.77-.17-1.26-.17v-1.54h9.61v1.54h-2.07c-.52,0-.79.17-.79.52,0,.11.04.23.13.37l4.24,6.73,4.29-6.62c.07-.12.1-.24.1-.37,0-.42-.36-.63-1.07-.63h-1.26v-1.54h6.78v1.57Z"/>
    <path class="st26" d="M779.31,626.81l-1.91.16c-.35-1.47-1.02-2.64-2-3.53-.99-.89-2.26-1.34-3.83-1.34-1.15,0-2.14.2-2.96.6-.82.4-1.49.96-2,1.68-.52.72-.89,1.57-1.14,2.57-.24,1-.37,2.09-.37,3.27,0,1.31.15,2.45.46,3.42.3.97.73,1.77,1.28,2.41.55.64,1.2,1.11,1.96,1.43.76.31,1.6.47,2.53.47,1.81,0,3.25-.42,4.29-1.27s1.81-2.04,2.28-3.57l1.75.6c-.24.84-.58,1.65-1.01,2.43-.43.79-.98,1.48-1.66,2.09-.68.61-1.51,1.1-2.49,1.48-.98.38-2.14.56-3.48.56-1.41,0-2.73-.2-3.95-.6-1.22-.4-2.29-1.01-3.21-1.84-.92-.82-1.64-1.86-2.16-3.11-.52-1.25-.79-2.72-.79-4.42s.26-3.3.77-4.6c.51-1.3,1.22-2.38,2.12-3.22.9-.85,1.95-1.48,3.15-1.9,1.2-.42,2.5-.63,3.87-.63s2.62.21,3.63.64c1,.42,1.76.91,2.26,1.46l.65-1.65h1.94v6.42Z"/>
    <path class="st26" d="M797.37,621.94c-1.94,0-2.91.4-2.91,1.2v14.66h5.13c.66,0,1.26-.09,1.78-.27.52-.18.98-.49,1.36-.92.38-.43.69-1,.93-1.71.24-.72.4-1.61.48-2.7l1.73.18-.63,7.46h-17.12v-1.49c1.55,0,2.33-.4,2.33-1.21v-14c0-.8-.78-1.21-2.33-1.21v-1.54h9.24v1.54Z"/>
    <path class="st26" d="M823.31,621.94c-1.55,0-2.33.4-2.33,1.21v14c0,.8.78,1.21,2.33,1.21v1.49h-8.69v-1.49c1.57,0,2.36-.4,2.36-1.21v-14c0-.8-.79-1.21-2.36-1.21v-1.54h8.69v1.54Z"/>
    <path class="st26" d="M853.63,621.94c-1.55,0-2.33.4-2.33,1.2v16.7h-4.84l-9.87-15.68v12.99c0,.8.78,1.2,2.33,1.2v1.49h-6.83v-1.49c1.55,0,2.33-.4,2.33-1.21v-14c0-.8-.78-1.21-2.33-1.21v-1.54h7.02l10.03,16.08v-13.33c0-.8-.78-1.2-2.33-1.2v-1.54h6.83v1.54Z"/>
    <path class="st26" d="M880.25,626.81l-1.91.18c-.35-1.47-1.02-2.64-2.02-3.53-.99-.89-2.27-1.34-3.82-1.34-1.15,0-2.14.2-2.96.6-.82.4-1.49.96-2.02,1.68-.52.72-.91,1.57-1.15,2.55-.24.99-.37,2.06-.37,3.23,0,1.45.15,2.67.46,3.65.3.99.74,1.78,1.31,2.4.57.61,1.24,1.05,2.03,1.32.79.27,1.66.41,2.62.41.68,0,1.33-.09,1.95-.27s1.16-.44,1.61-.76.82-.7,1.09-1.13.41-.89.41-1.38v-1.36c0-.8-.79-1.2-2.36-1.2v-1.49h8.01v1.49c-1.57,0-2.36.4-2.36,1.2v6.78h-2.64l-.58-1.94c-.24.3-.56.59-.94.86-.38.28-.83.53-1.35.76-.52.23-1.1.41-1.75.54-.65.13-1.37.2-2.16.2-1.24,0-2.43-.19-3.59-.56s-2.17-.97-3.05-1.78c-.88-.81-1.58-1.85-2.11-3.12-.52-1.27-.79-2.8-.79-4.6s.26-3.32.79-4.61c.52-1.29,1.23-2.35,2.13-3.18.9-.83,1.95-1.44,3.17-1.85,1.21-.4,2.5-.6,3.86-.6s2.62.21,3.63.64c1,.43,1.76.91,2.26,1.45l.65-1.65h1.94v6.39Z"/>
  </g>
  <polygon class="st18" points="746.14 474.4 767.91 469.38 769.03 492.99 746.14 474.4"/>
</svg>
