<?xml version="1.0" encoding="UTF-8"?>
<svg id="Layer_2" xmlns="http://www.w3.org/2000/svg" xmlns:xlink="http://www.w3.org/1999/xlink" version="1.1" viewBox="0 0 271.05 283.41">
  <!-- Generator: Adobe Illustrator 30.3.0, SVG Export Plug-In . SVG Version: 2.1.3 Build 182)  -->
  <defs>
    <style>
      .st0 {
        fill: #3c6990;
      }

      .st1 {
        fill: #4d7296;
      }

      .st2 {
        fill: #527191;
      }

      .st3 {
        fill: #5079a5;
      }

      .st4 {
        fill: url(#linear-gradient);
      }

      .st5 {
        fill: #195a2d;
      }

      .st6 {
        fill: #286331;
      }

      .st7 {
        fill: #112146;
      }

      .st8 {
        fill: #18582c;
      }

      .st9 {
        fill: #5f7e9f;
      }

      .st10 {
        fill: #326833;
      }

      .st11 {
        fill: #73a441;
      }

      .st12 {
        fill: #112247;
      }

      .st13 {
        fill: #1a2e5a;
      }

      .st14 {
        fill: #2a4b74;
      }

      .st15 {
        fill: #b6c9d7;
      }

      .st16 {
        fill: #17592d;
      }

      .st17 {
        fill: #5d7d9c;
      }

      .st18 {
        fill: #d1dae1;
      }

      .st19 {
        fill: #122248;
      }
    </style>
    <linearGradient id="linear-gradient" x1="-377.69" y1="-768.52" x2="-400.74" y2="-814.98" gradientTransform="translate(528.45 -635.76) scale(.93 -.93)" gradientUnits="userSpaceOnUse">
      <stop offset="0" stop-color="#4f873d"/>
      <stop offset="1" stop-color="#659b41"/>
    </linearGradient>
  </defs>
  <g id="Layer_1-2">
    <path class="st19" d="M136.9,94.53c-2.89,3.64-6.81,7.03-7.85,11.09l-1.59,35.23c-.85,18.83-1.22,51.39-6.74,65.15-2.22,5.54-7.19,9.1-13.19,10.86-18.06,5.32-39.33-8.28-52.03-22.22,8.93,14.09,25.74,25.76,41.8,28.94-13.79,3.44-27.11,4.76-41.03,4.67-7.05-6.4-11.95-13.81-16.61-22.32l-11.28,13.58c-11.52-32.33-10.37-61.81,10.51-89.46,9.33,20.5,22.48,38.08,40.7,52.59l-14.34,6.73c8.26,7.88,17.26,14.5,28,17.29,16.24,4.23,21.57-16.1,22.95-31.51,1.88-20.97,2.88-41.42,3.54-62.87l-23.19-3.64c-1.06,1.52-2.83,3.84-4.65,3.33l-17.09-4.73c-2.21-8.09-2.06-16.6-.02-24.75,6-1.97,11.23-3.85,17.13-5.06,1.99-.41,3.32,1.62,4.45,3.01l23.01-3.79c1.29-.26,1.57-4.39.41-5.22-16.17-11.7-22.39-32.72-14.19-50.64,8.82-19.25,32.04-26.86,50.06-15.3,10.6,6.8,16.27,18.28,16.73,30.68.53,14.39-6.06,27.58-18.2,35.39l.13,4.96,24.41,3.81c1.21-2.15,2.96-3.65,5.49-2.88l15.76,4.79c1.68,6,1.43,11.89,1.32,18.31-.03,1.84-.02,5.38-1.84,6.56l-16.6,4.89c-1.9.56-3.71-1.89-4.64-3.23l-23.4,3.39,3.85,63.74c.5,8.34,2.68,15.88,6.52,23.49l-27.03,11.82-.69-89.75-.56-26.9v-.03ZM163.09,28.74c-.92-.1-2.28.11-2.63.79-1.33,2.61.87,5.75-1.15,5.83-1.52-3.47-1.05-9-4.05-10.28,2.54,6.01,2.8,10.84.83,16.15-1.48,3.99-2.97,8.03-6.48,10.78l1.45,3.47c4.23-3.07,7.17-7.4,7.57-12.04,1.34.29,2.57.6,4.11,1.54-.62,1.79-.61,3.73-.81,5.33-.09.73-1.79,2.02,0,3.19,3.18-5.68,4-11.91,3.65-18.1-.77-13.45-9.31-26.7-23.75-28.9-11.02-1.68-21.62,2.15-27.7,11.24-9.96,14.91-5.91,38.09,9.68,47.28-6.02-7.4-11.18-14.99-9.71-24.02,3.32,5.69,5.1,11.16,10.49,14.06-3.41-4.53-6.5-7.78-7.49-13.06-1.35-7.18-1.46-15.34,2.67-21.53,6.54-9.8,19.36-11.59,28.94-5.26l6.95,5.6c-.81-4.17-4.09-5.53-6.19-8.61,7.07,3.29,11.78,9.51,13.62,16.52v.02ZM146.54,47.2c6.24-4.89,5.8-15.44.84-20.71-3.75-3.99-8.49-5.69-13.87-4.29-3.86,1-7.82,4.67-9.11,9.45-1.61,5.98-.9,11.73,3.72,16.21,5.44-5.46,12.8-3.05,18.42-.65h0ZM137.56,72.24l8.17,2.25-.1-17.37c0-1.76-1.09-2.83-2.09-3.67-7.01-5.85-14.12-1.52-14.16.87l-.31,19.79,8.49-1.88h0ZM137.04,90.75l42.27.2c.33-1.59.3-3.28.11-4.96-14.41-1.32-27.96-4.07-42-7.97-13.87,3.58-27.62,6.44-42.13,7.94-.27,1.77-.31,3.38-.07,5.1l41.81-.31h0ZM88.09,89.89c.83,2.26-.03,4.28,2.1,6.34l.31-12.7-10.28,3.34c-1.46.47-1.35,3.35-.58,4.72l8.46-1.71h0ZM194.49,91.19c.9-1.22.79-4.16-.41-4.53l-9.99-3.13.02,15.97c2.21-3.17,1.48-6.31,2.4-9.43l7.98,1.12h0ZM112.32,99.68c1.19.11,1.63-.35,1.6-1.1-.04-.91-.44-1.13-1.57-1.23l-16.84-1.37c-.5-.04-.46,2.08.18,2.14l16.63,1.55h0ZM148.98,100.12c9.47.33,18.32-1.57,27.8-1.53h2.36c.5.01.31-2.8-.2-2.75l-24.73,2.39c-1.58.15-3.69.1-5.24,1.89h0ZM60.35,180.34c-6.57-6.66-12.17-13.16-17.06-20.81-1.92-2.94-3.04-5.79-5.06-9.31-.33,9.36,1.21,18.69,4.5,27.8.61,1.68,1.72,4.95,3.38,5.36l14.25-3.03h-.01ZM32.89,169.83c-.1-2.97.92-5.49.58-9.11-.11-1.14,1.89-3.24.16-5.08-3.23,13.34-4.1,27.35-.19,41.34,1.84-1.25,2.4-3.23,1.93-5.11-1.79-7.12-2.21-14.39-2.48-22.04h0ZM80.72,221.44c-12.04-6.48-20.57-15.21-29.05-24.74,5.64,10.84,14.12,19.57,23.69,26.76,1.34.81,5.2-.34,5.36-2.02h0Z"/>
    <path class="st4" d="M270.28,123.59c-2.02,29.4-27.79,52.13-52.75,68.68-32.67,21.66-70.9,36.79-109.77,44.9-18.21,3.8-36.14,5.76-54.62,3.91-18.62-1.87-40.1-8.03-49.39-24.04.33-.88-.98-.9-.99.07-7.82-17.04,2.18-38.03,15.46-51.37l-1.39,11.91c-1.09-.29-.73,2.67-1.32,3.48-2.62,3.64-3.17,6.92-3.65,10.95-.58,4.83-1.73,10.57.49,12.27,1.42,11.21,9.79,20.14,20.99,24.07,23.24,8.14,54.36,2.6,78.08-4.2,27.67-7.93,53.67-18.79,78.4-33.16,22.77-13.24,48.07-31.67,58.25-56.21,5.3-12.78,1.52-26.78-10.06-34.23l-6.83-4.39c2.35-1.96,1.17-4.03,2.54-5.74,17.22,4.45,32.98,15.9,36.57,33.09h-.01Z"/>
    <path class="st12" d="M117.55,247.39c-.22.95.02,1.88,1,2.41,3.67,1.98,6.51,4.68,9.48,7.22l8.66,7.43.28-10.72-.16-9.12c0-.37-1.07-1.15-1.06-1.82,38.4-11.4,76.21-27.91,106.82-55.19.68.12,1.08.83.43,1.17-1.07,2.4-1.61,4.97.12,7.57l1.73-7.89c.19-.86-.05-1.34-.63-2.05l11.63-11.6c.65,15.65-1.72,30.27-6.78,44.86l-11.78-14.3c-14.23,28.53-40.13,42.66-67.88,55.96-11.95,5.73-22.7,12.41-32.02,22.08-6.37-7.54-13.56-12.81-21.99-17.12l-27.03-13.82c10.54-1.44,19.88-2.73,29.2-5.08h-.02ZM141.51,261.4c9.36-6.28,18.39-10.74,27.81-15.83,14.98-8.11,31.68-18.75,42.23-31.49-14.72,11.93-30.57,21.52-48.2,28.55-9.67,3.86-18.81,9.42-21.83,18.77h0Z"/>
    <path class="st16" d="M2.75,217.12c0-.97,1.32-.95.99-.07,9.29,16.01,30.77,22.17,49.39,24.04,18.47,1.85,36.4-.11,54.62-3.91,38.88-8.11,77.1-23.24,109.77-44.9,24.96-16.55,50.73-39.28,52.75-68.68,3.46,16.57-5.25,33.94-16.91,47.16-28.7,32.55-70.64,52.8-111.44,65.75s-101.13,24.3-131.2-6.69c-3.73-3.84-5.96-8.3-7.98-12.69h.01Z"/>
    <path class="st5" d="M236.52,123.72c-11.86-6.38-24.77-9.47-38.87-10.6,9.81-4.01,7.51-7.77,8.24-18.48,19.53,3.1,40.71,12.6,37.8,33.83l-7.18-4.74h0Z"/>
    <path class="st11" d="M111.17,121.16c-18.57,1.55-39.69,14.4-54.45,26.11-.92.73-1.7,1.65-2.28,2.43l-5.01-8.14c13.75-11.39,29.27-20.12,45.82-26.22,0,0,15.92,5.82,15.92,5.82Z"/>
    <path class="st8" d="M111.17,121.16c.54.17,1.78-.24,2.83.64-19.54,8.07-38.82,18.59-54.85,34.35l-4.71-6.45c.58-.78,1.37-1.7,2.28-2.43,14.76-11.71,35.88-24.56,54.45-26.11Z"/>
    <path class="st7" d="M202.39,177.84c-1.85-1.64-.53-3.79,1.08-3.96,14.66-12.39,23.93-27.27,32.98-44.18,2.63,2.35,4.25,4.57,5.75,7.48-7.41,16.76-24.29,29.7-39.81,40.66h0Z"/>
    <path class="st10" d="M233.71,90.5c-1.38,1.71-.19,3.78-2.54,5.74-8.24-4.33-16.94-6.3-25.77-8.99,10.04-.8,19.34.93,28.32,3.25h0Z"/>
    <path class="st6" d="M12.34,204.37c-2.22-1.71-1.08-7.44-.49-12.27.49-4.04,1.03-7.32,3.65-10.95.58-.81.22-3.77,1.32-3.48l-.25,8.76c-2.92,5.64-5.02,11.71-4.23,17.94Z"/>
    <path class="st3" d="M242.56,187.6l1.65-1.19c.58.71.82,1.19.63,2.05l-1.73,7.89c-1.73-2.6-1.19-5.17-.12-7.57.65-.34.25-1.05-.43-1.17h0Z"/>
    <path class="st18" d="M137.04,90.75l.38-12.73c14.04,3.9,27.59,6.65,42,7.97.19,1.68.21,3.38-.11,4.96,0,0-42.27-.2-42.27-.2Z"/>
    <path class="st2" d="M143.54,53.45c1.01.84,2.08,1.91,2.09,3.67l.1,17.37-8.17-2.25c-.53-6.6-.3-12.84-.16-19.75,2.22,1.59,4.88,2.22,5.27,2.02s.64-.69.87-1.06Z"/>
    <path class="st17" d="M80.72,221.44c-.15,1.67-4.02,2.82-5.36,2.02-9.56-7.19-18.05-15.92-23.69-26.76,8.47,9.53,17.01,18.26,29.05,24.74h0Z"/>
    <path class="st13" d="M163.09,28.74l1.57,5.98c.16.59.4.75.92.69.36,6.19-.46,12.41-3.65,18.1-1.8-1.17-.1-2.46,0-3.19.19-1.6.18-3.55.81-5.33-1.53-.94-2.77-1.25-4.11-1.54l.69-8.09c2.02-.08-.18-3.22,1.15-5.83.35-.68,1.71-.89,2.63-.79h0Z"/>
    <path class="st9" d="M32.89,169.83c.27,7.65.69,14.92,2.48,22.04.47,1.88-.09,3.86-1.93,5.11-3.91-13.99-3.04-28,.19-41.34,1.73,1.85-.27,3.94-.16,5.08.34,3.62-.68,6.14-.58,9.11Z"/>
    <path class="st14" d="M148.98,100.12c1.55-1.79,3.66-1.73,5.24-1.89l24.73-2.39c.51-.05.7,2.76.2,2.76h-2.36c-9.48-.05-18.34,1.85-27.8,1.52h0Z"/>
    <path class="st1" d="M112.32,99.68l-16.63-1.55c-.64-.06-.68-2.18-.18-2.14l16.84,1.37c1.13.09,1.53.31,1.57,1.23.03.75-.41,1.21-1.6,1.1h0Z"/>
    <path class="st15" d="M141.51,261.4c3.03-9.35,12.16-14.91,21.83-18.77,17.63-7.03,33.47-16.61,48.2-28.55-10.54,12.74-27.24,23.38-42.23,31.49-9.41,5.09-18.45,9.55-27.81,15.83h0Z"/>
    <polygon class="st0" points="115.35 248.01 137.12 243 138.25 266.6 115.35 248.01"/>
  </g>
</svg>